<?xml version="1.0" encoding="UTF-8"?>
<!DOCTYPE svg PUBLIC "-//W3C//DTD SVG 1.1//EN" "http://www.w3.org/Graphics/SVG/1.1/DTD/svg11.dtd">
<!-- Creator: CorelDRAW 2017 -->
<svg xmlns="http://www.w3.org/2000/svg" xml:space="preserve" width="2.66642in" height="2.66642in" version="1.1" style="shape-rendering:geometricPrecision; text-rendering:geometricPrecision; image-rendering:optimizeQuality; fill-rule:evenodd; clip-rule:evenodd"
viewBox="0 0 2778 2778"
 xmlns:xlink="http://www.w3.org/1999/xlink">
 <defs>
  <style type="text/css">
   <![CDATA[
    .fil8 {fill:none}
    .fil7 {fill:#33E2C5}
    .fil4 {fill:#4A2305}
    .fil5 {fill:#736A6B}
    .fil6 {fill:#D0CDC7}
    .fil3 {fill:#F7931C}
    .fil1 {fill:#FECB4C}
    .fil0 {fill:white}
    .fil2 {fill:white;fill-rule:nonzero}
   ]]>
  </style>
 </defs>
 <g id="Layer_x0020_1">
  <metadata id="CorelCorpID_0Corel-Layer"/>
  <g id="_2382734364864">
   <g>
    <rect class="fil0" x="321" y="1451" width="2135" height="931" rx="262" ry="164"/>
    <circle class="fil1" cx="1389" cy="1119" r="686"/>
    <path class="fil2" d="M1389 1841c199,0 380,-81 511,-212 131,-131 212,-311 212,-511 0,-199 -81,-380 -212,-511 -131,-131 -311,-212 -511,-212 -199,0 -380,81 -511,212 -131,131 -212,311 -212,511 0,199 81,380 212,511 131,131 311,212 511,212zm459 -264c-117,117 -280,190 -459,190 -179,0 -341,-73 -459,-190 -117,-117 -190,-280 -190,-459 0,-179 73,-341 190,-459 117,-117 280,-190 459,-190 179,0 341,73 459,190 117,117 190,280 190,459 0,179 -73,341 -190,459z"/>
    <rect class="fil3" x="396" y="1506" width="1986" height="820" rx="243" ry="144"/>
    <path class="fil2" d="M684 1730l120 0 20 22 -24 21 -120 0 -19 -21 23 -22zm-28 329l120 0 19 21 -23 22 -120 0 -20 -22 24 -21zm149 -281l23 -21 20 21 -11 117 -23 21 -20 -21 11 -117zm-173 0l24 -21 19 21 -9 117 -24 21 -20 -21 10 -117zm158 161l24 -22 19 22 -9 116 -24 21 -20 -21 11 -116zm-173 0l24 -22 20 22 -11 116 -24 21 -19 -21 10 -116z"/>
    <path id="1" class="fil2" d="M1060 1730l120 0 20 22 -24 21 -120 0 -19 -21 23 -22zm-28 329l120 0 19 21 -23 22 -120 0 -20 -22 24 -21zm149 -281l23 -21 20 21 -11 117 -23 21 -20 -21 11 -117zm-173 0l24 -21 19 21 -9 117 -24 21 -20 -21 10 -117zm158 161l24 -22 19 22 -9 116 -24 21 -20 -21 11 -116zm-173 0l24 -22 20 22 -11 116 -24 21 -19 -21 10 -116z"/>
    <path id="2" class="fil2" d="M1388 1800l44 0 -3 43 -44 0 3 -43zm-14 165l45 0 -4 43 -45 0 4 -43z"/>
    <path id="3" class="fil2" d="M1629 1730l120 0 20 22 -24 21 -120 0 -19 -21 23 -22zm-28 329l120 0 19 21 -23 22 -120 0 -20 -22 24 -21zm149 -281l23 -21 20 21 -11 117 -23 21 -20 -21 11 -117zm-173 0l24 -21 19 21 -9 117 -24 21 -20 -21 10 -117zm158 161l24 -22 19 22 -9 116 -24 21 -20 -21 11 -116zm-173 0l24 -22 20 22 -11 116 -24 21 -19 -21 10 -116z"/>
    <path id="4" class="fil2" d="M2005 1730l120 0 20 22 -24 21 -120 0 -19 -21 23 -22zm-28 329l120 0 19 21 -23 22 -120 0 -20 -22 24 -21zm149 -281l23 -21 20 21 -11 117 -23 21 -20 -21 11 -117zm-173 0l24 -21 19 21 -9 117 -24 21 -20 -21 10 -117zm158 161l24 -22 19 22 -9 116 -24 21 -20 -21 11 -116zm-173 0l24 -22 20 22 -11 116 -24 21 -19 -21 10 -116z"/>
    <g>
     <path class="fil4" d="M1066 925c2,9 3,23 5,32l32 229c3,22 5,43 9,65 2,14 11,12 25,12l522 0c37,0 28,3 39,-73 6,-43 13,-87 18,-131 12,-88 26,-174 37,-261 1,-7 -1,-10 -5,-13 -10,-9 -62,-63 -65,-65 -6,-3 -62,-2 -73,-2l-447 0c-15,0 -14,-1 -28,9 -18,13 -48,33 -67,46 -4,3 -7,5 -11,8 -4,3 -8,4 -10,9 -3,6 2,24 2,33l14 102z"/>
     <path class="fil4" d="M1681 1520l31 0c2,-1 25,-2 30,-3 10,-1 19,-3 28,-5 28,-6 50,-13 76,-24 8,-4 16,-7 14,-18 -4,-19 -10,-35 -17,-50 10,0 26,2 32,-3 4,-2 2,-4 5,-6l0 -8c-2,-2 -2,-3 -3,-5l-165 -129c-10,-7 -9,-6 -24,-6l-601 0c-14,0 -14,2 -22,8 -12,9 -23,18 -34,27l-127 99c-3,3 -4,6 -4,11 1,11 11,11 18,11l391 0c80,0 160,-1 240,0 -6,13 -15,33 -16,50 -1,11 8,13 16,17 29,14 70,26 103,30 5,1 27,2 30,3z"/>
     <path class="fil5" d="M1168 988l28 197 412 0 47 -323 -506 0c0,5 1,10 2,15l16 111 0 0z"/>
     <path class="fil0" d="M1122 850c0,-17 12,-14 73,-14 148,0 297,0 445,0 9,0 19,0 28,0 9,0 15,3 15,12 0,5 -2,18 -3,24 -10,73 -22,146 -32,220 -4,32 -9,64 -14,97 -4,24 -4,22 -34,22 -42,0 -411,1 -417,0 -9,-2 -10,-7 -11,-17 -7,-48 -15,-99 -21,-147 -1,-7 -6,-48 -10,-74l0 0 -18 -124zm-25 118l38 269 529 0 61 -429 -650 0c0,5 1,11 2,17l2 11c0,2 0,3 1,4l18 128z"/>
     <path class="fil6" d="M1103 782l606 0c-1,-3 -3,-4 -5,-6l-16 -16c-4,-4 -7,-7 -10,-10 -6,-6 -4,-6 -16,-6l-490 0c-11,0 -12,-1 -19,3 -8,6 -17,12 -25,17 -4,3 -24,16 -25,18z"/>
     <path class="fil7" d="M1648 1491c40,7 83,3 122,-5 17,-3 49,-13 62,-20 -1,-13 -15,-41 -23,-51 -1,-1 -2,-2 -3,-3l-9 -10c-2,-2 -4,-4 -7,-6 -2,-2 -5,-3 -7,-5 -5,-3 -11,-6 -17,-9 -11,-5 -27,-9 -40,-11 -17,-2 -17,-4 -26,7 -8,9 -9,10 -17,21 -3,5 -7,10 -10,16 -10,17 -24,52 -25,75z"/>
     <path class="fil6" d="M1069 1302l635 0c4,0 4,1 7,-1 -4,-2 -8,-6 -12,-9 -5,-4 -10,-2 -18,-2l-582 0c-17,0 -13,-2 -24,7 -1,1 -2,1 -3,2 -2,2 -2,1 -3,3z"/>
     <path class="fil7" d="M1560 1465c5,2 10,4 15,6 20,8 27,10 48,15 1,-24 14,-54 24,-76 1,-3 4,-8 5,-10 -11,-2 -25,-4 -37,-4 -18,0 -21,4 -28,13 -8,10 -10,11 -16,24 -3,6 -10,23 -11,31z"/>
     <polygon class="fil6" points="1140,1353 1185,1353 1189,1344 1147,1344 "/>
     <path class="fil6" d="M1595 1353c13,0 31,2 42,-3 -7,-9 -6,-7 -19,-7 -9,0 -18,0 -27,0l4 10z"/>
     <path class="fil6" d="M1084 1353l40 0 7 -9c-9,0 -19,0 -28,0 -7,0 -12,-2 -19,9z"/>
     <path class="fil6" d="M1446 1353l39 0 -2 -9c-7,-1 -30,0 -39,0l2 9z"/>
     <path class="fil6" d="M1295 1353l38 0 2 -10 -38 0c-1,2 -2,6 -2,9z"/>
     <path class="fil6" d="M1395 1353l39 0c0,-2 0,-3 -1,-5 0,0 -1,-2 -1,-3l-1 -2 -36 0 0 9z"/>
     <polygon class="fil6" points="1543,1353 1580,1353 1576,1344 1540,1344 "/>
     <polygon class="fil6" points="1199,1353 1236,1353 1239,1344 1204,1344 "/>
     <polygon class="fil6" points="1346,1353 1382,1353 1382,1343 1348,1344 "/>
     <polygon class="fil6" points="1250,1353 1281,1353 1283,1343 1253,1344 "/>
     <polygon class="fil6" points="1498,1353 1530,1353 1527,1344 1496,1344 "/>
     <path class="fil6" d="M950 1394l32 0c-3,-3 -5,-3 -6,-7 -4,-10 5,-15 10,-19l7 -6c1,-1 0,0 1,-2l-43 33z"/>
     <path class="fil6" d="M1045 1353c15,0 20,3 28,-7 2,-2 0,0 1,-2 -5,0 -14,-1 -18,1 -2,1 -9,7 -11,9z"/>
    </g>
    <path class="fil0" d="M1411 912l-15 0c-1,1 -10,2 -12,2 -25,5 -49,18 -65,38 -1,1 -2,2 -3,4 -2,2 -4,5 -6,8 -3,5 -7,12 -9,18 -1,4 -2,6 -4,10 -4,12 -5,23 -5,36 0,26 15,59 34,76 22,20 45,31 78,31 60,0 110,-51 111,-108 0,-36 -13,-64 -37,-87 -2,-2 -5,-4 -7,-6 -5,-4 -10,-7 -17,-11 -10,-5 -20,-8 -31,-10 -1,0 -11,-2 -12,-2zm-2 152l40 0c0,-2 1,-6 1,-8 1,-7 1,-11 2,-17 0,-3 0,-6 0,-9l-44 0 0 35zm-50 0l39 0 0 -35c-14,0 -30,0 -44,0 0,7 2,28 4,35zm50 -78l0 32 44 0c0,-8 -2,-29 -4,-35l-39 0 0 3zm-55 32l44 0 0 -35 -40 0 -4 35zm7 -46l37 0 0 -49c-3,0 -7,0 -10,1 -4,1 -7,1 -9,2 -6,8 -17,36 -19,45zm48 151c5,0 9,-1 14,-2 2,0 3,0 4,-2l4 -7c1,-3 3,-5 4,-7 2,-5 4,-10 6,-15 2,-4 4,-12 5,-17l-37 0 0 49zm-98 -60l36 0 -3 -17c-1,-6 -1,-12 -1,-18l-40 0c0,14 4,23 8,35zm152 -46l40 0c0,-14 -4,-23 -8,-35l-36 0 3 16c1,6 1,12 1,18zm-4 46l35 0c2,-7 3,-7 5,-16 1,-5 3,-13 3,-19l-40 0c0,3 0,6 0,9l-2 17c0,2 -1,7 -2,8zm-157 -46l40 0c1,-8 2,-28 4,-35l-34 0c-2,0 -2,2 -2,3 -2,6 -2,6 -4,12 -1,5 -3,14 -3,19zm106 -46l37 0 -5 -16c-4,-10 -9,-19 -14,-28 -2,-4 -2,-3 -7,-4 -3,-1 -7,-1 -10,-1l0 49zm-11 151l0 -49 -37 0c1,2 2,6 2,8 5,14 9,24 17,36 2,4 2,3 7,4 3,1 7,1 10,1zm-31 -7c-2,-5 -6,-12 -9,-20l-7 -22 -33 0c2,5 6,9 9,13 6,8 16,16 24,21 3,2 12,7 16,8zm90 -145l33 0c-3,-6 -12,-17 -18,-22 -9,-8 -13,-11 -24,-17 -3,-1 -6,-2 -8,-4 1,2 7,14 9,20l8 22zm-140 0l31 0c1,-1 3,-8 4,-11 1,-3 3,-8 4,-11l9 -20c-10,5 -19,9 -27,17 -8,7 -15,15 -20,24zm125 144c10,-5 11,-5 21,-12 9,-7 21,-19 26,-29l-31 0c-1,1 -3,9 -4,11 -3,8 -5,14 -8,21 -1,3 -4,7 -5,10z"/>
   </g>
   <rect class="fil8" width="2778" height="2778"/>
  </g>
 </g>
</svg>
